# xmcd
#
# Track frame offsets:
# 150
# 19354
# 35755
# 48851
# 64847
# 80691
# 94608
# 114053
# 129733
# 145966
# 159926
# 177153
# 200773
# 213869
# 227765
# 245027
# 261922
#
# Disc length: 3721 seconds
#
#
# Revision: 2
# Processed by: cddbd v1.5.2PL0 Copyright (c) Steve Scherf et al.
# Submitted via: FreeRIP 2.951 
#
DISCID=f00e8711
DTITLE=Claudia Jung - Claudia Jung - Wintertäume - 1996
DYEAR=1996
DGENRE=Weihnacht
TTITLE0=Ein Lied, das von Liebe erzählt
TTITLE1=Weihnachten wirst du bei mir sein
TTITLE2=Kannst du noch Glauben
TTITLE3=Weihnachtszeit - Mistletoe and Wine [Duett mit Cliff Richard]
TTITLE4=Das Mädchen mit den Schwefelhölzern
TTITLE5=Solang noch Wunder möglich sind
TTITLE6=Saviour's Day [Duett mit Cliff Richard]
TTITLE7=Glaub mir
TTITLE8=Wenn die Liebe geht
TTITLE9=Weiße Weihnacht (White Christmas)
TTITLE10=Wenn ein neues Jahr geboren wird
TTITLE11=Weihnachten Zuhaus [dt. Weihnachts - Medley]
TTITLE12=Stille Nacht
TTITLE13=Petit Papa Noel
TTITLE14=Merry Christmas [engl. Weihnachts - Medley]
TTITLE15=Il Tamburino (Little Drummerboy)
TTITLE16=Nouvelle Année
EXTD=
EXTT0=
EXTT1=
EXTT2=
EXTT3=
EXTT4=
EXTT5=
EXTT6=
EXTT7=
EXTT8=
EXTT9=
EXTT10=
EXTT11=
EXTT12=
EXTT13=
EXTT14=
EXTT15=
EXTT16=
PLAYORDER=
